<svg width="30" height="31" viewBox="0 0 30 31" fill="none" xmlns="http://www.w3.org/2000/svg">
<g filter="url(#filter0_d_501_169)">
<path d="M11 22.3199C10.72 22.3199 10.43 22.2499 10.17 22.1099C9.59998 21.8099 9.25 21.2099 9.25 20.5699V19.15C6.23 18.84 4.25 16.6199 4.25 13.4399V7.43994C4.25 3.99994 6.56 1.68994 10 1.68994H20C23.44 1.68994 25.75 3.99994 25.75 7.43994V13.4399C25.75 16.8799 23.44 19.1899 20 19.1899H16.23L11.97 22.03C11.68 22.22 11.34 22.3199 11 22.3199ZM10 3.17993C7.42 3.17993 5.75 4.84993 5.75 7.42993V13.43C5.75 16.01 7.42 17.68 10 17.68C10.41 17.68 10.75 18.02 10.75 18.43V20.56C10.75 20.69 10.83 20.75 10.88 20.78C10.93 20.81 11.03 20.84 11.14 20.77L15.59 17.81C15.71 17.73 15.86 17.68 16.01 17.68H20.01C22.59 17.68 24.26 16.01 24.26 13.43V7.42993C24.26 4.84993 22.59 3.17993 20.01 3.17993H10Z" fill="#9197B3"/>
<path d="M14.9998 12.1099C14.5898 12.1099 14.2498 11.7699 14.2498 11.3599V11.1499C14.2498 9.9899 15.0998 9.41989 15.4198 9.19989C15.7898 8.94989 15.9098 8.7799 15.9098 8.5199C15.9098 8.0199 15.4998 7.60986 14.9998 7.60986C14.4998 7.60986 14.0898 8.0199 14.0898 8.5199C14.0898 8.9299 13.7498 9.2699 13.3398 9.2699C12.9298 9.2699 12.5898 8.9299 12.5898 8.5199C12.5898 7.1899 13.6698 6.10986 14.9998 6.10986C16.3298 6.10986 17.4098 7.1899 17.4098 8.5199C17.4098 9.6599 16.5698 10.2299 16.2598 10.4399C15.8698 10.6999 15.7498 10.8699 15.7498 11.1499V11.3599C15.7498 11.7799 15.4098 12.1099 14.9998 12.1099Z" fill="#9197B3"/>
<path d="M15 14.6001C14.58 14.6001 14.25 14.2601 14.25 13.8501C14.25 13.4401 14.59 13.1001 15 13.1001C15.41 13.1001 15.75 13.4401 15.75 13.8501C15.75 14.2601 15.42 14.6001 15 14.6001Z" fill="#9197B3"/>
</g>
<defs>
<filter id="filter0_d_501_169" x="-1" y="0" width="32" height="32" filterUnits="userSpaceOnUse" color-interpolation-filters="sRGB">
<feFlood flood-opacity="0" result="BackgroundImageFix"/>
<feColorMatrix in="SourceAlpha" type="matrix" values="0 0 0 0 0 0 0 0 0 0 0 0 0 0 0 0 0 0 127 0" result="hardAlpha"/>
<feOffset dy="4"/>
<feGaussianBlur stdDeviation="2"/>
<feComposite in2="hardAlpha" operator="out"/>
<feColorMatrix type="matrix" values="0 0 0 0 0 0 0 0 0 0 0 0 0 0 0 0 0 0 0.25 0"/>
<feBlend mode="normal" in2="BackgroundImageFix" result="effect1_dropShadow_501_169"/>
<feBlend mode="normal" in="SourceGraphic" in2="effect1_dropShadow_501_169" result="shape"/>
</filter>
</defs>
</svg>
